<?xml version="1.0" standalone="no"?>
<!DOCTYPE svg PUBLIC "-//W3C//DTD SVG 20010904//EN"
 "http://www.w3.org/TR/2001/REC-SVG-20010904/DTD/svg10.dtd">
<svg version="1.0" xmlns="http://www.w3.org/2000/svg"
 width="500.000000pt" height="500.000000pt" viewBox="0 0 500.000000 500.000000"
 preserveAspectRatio="xMidYMid meet">
<metadata>
Created by potrace 1.14, written by Peter Selinger 2001-2017
</metadata>
<g transform="translate(0.000000,500.000000) scale(0.100000,-0.100000)"
fill="#000000" stroke="none">
<path d="M0 4000 c0 -945 1 -1000 18 -1001 9 -1 29 0 44 1 15 1 41 -9 57 -21
34 -25 39 -39 16 -39 -24 0 -17 -22 16 -50 28 -23 32 -33 33 -81 1 -36 9 -65
24 -89 12 -19 22 -40 22 -47 0 -7 13 -27 29 -46 16 -18 33 -45 37 -61 3 -15
22 -43 40 -63 18 -19 36 -42 39 -52 2 -9 33 -45 68 -81 35 -36 62 -71 60 -77
-5 -15 -36 -17 -61 -4 -9 5 -25 12 -35 15 -11 3 -21 14 -24 24 -2 10 -25 31
-51 47 -47 29 -72 50 -72 58 0 3 10 7 22 11 18 4 20 8 10 18 -10 10 -14 10
-21 -1 -7 -11 -14 -10 -36 8 -15 11 -31 21 -35 21 -5 0 -34 25 -65 55 -31 30
-60 55 -64 55 -17 0 -21 33 -9 66 9 25 9 36 -1 47 -9 12 -9 16 1 20 9 4 7 6
-4 6 -9 1 -26 13 -37 29 l-20 27 -1 -1047 c0 -577 2 -1048 5 -1048 3 0 21 7
41 15 32 13 130 31 304 56 140 19 205 32 217 41 6 5 56 14 110 20 54 6 107 16
117 24 11 7 30 11 43 8 13 -4 30 -1 38 6 9 7 28 13 42 14 23 1 28 7 34 35 10
46 2 61 -31 61 -16 0 -30 7 -34 15 -3 8 -12 15 -19 15 -8 0 -27 11 -43 25 -36
32 -62 39 -96 26 -19 -7 -37 -6 -65 4 -21 7 -63 18 -95 25 -53 10 -76 29 -62
51 3 5 19 9 35 9 17 0 40 5 51 11 20 11 21 12 4 25 -10 7 -24 10 -31 8 -7 -3
-30 4 -51 15 -22 11 -57 22 -79 23 -33 3 -41 7 -43 26 -2 12 -8 22 -13 22 -6
0 -7 4 -4 10 8 13 105 13 105 0 0 -15 59 -42 83 -38 17 2 22 10 23 33 0 17 4
37 7 45 6 12 -3 15 -44 17 -36 1 -55 6 -61 17 -6 10 -23 16 -47 16 -22 0 -44
6 -51 15 -10 12 -8 16 15 25 14 5 32 10 40 10 33 0 20 17 -26 33 -27 10 -53
26 -59 37 -8 16 -6 19 19 25 17 3 39 2 49 -4 11 -6 46 -14 78 -17 38 -4 67
-14 81 -27 21 -18 23 -19 29 -3 4 10 2 22 -5 29 -17 17 14 46 42 39 20 -5 21
-4 7 14 -8 10 -21 25 -28 33 -7 8 -20 24 -29 37 -8 13 -22 24 -29 24 -20 0
-17 18 3 23 10 3 2 6 -17 7 -19 1 -27 4 -18 7 10 2 18 9 18 14 0 8 -17 11 -87
13 -13 1 -36 17 -53 39 -18 20 -39 37 -49 37 -20 0 -41 19 -41 37 0 20 81 5
101 -19 20 -22 26 -22 45 -4 9 9 10 17 4 21 -13 8 -13 45 0 65 8 12 11 13 19
1 7 -10 10 -10 13 -1 2 8 12 10 26 6 29 -10 28 -24 -3 -32 -31 -8 -32 -21 -3
-29 41 -12 85 -34 98 -50 15 -18 49 -19 103 -3 32 10 41 10 45 0 2 -7 8 -12
14 -12 6 0 8 6 5 14 -4 10 0 12 14 9 10 -3 19 -12 19 -19 0 -9 11 -14 30 -14
29 0 30 2 19 22 -9 16 -9 23 0 26 19 6 12 22 -9 22 -11 0 -20 5 -20 10 0 9 28
15 58 11 6 -1 12 3 12 8 0 14 37 8 52 -7 8 -8 16 -6 29 10 10 11 21 29 24 39
3 10 14 21 24 24 24 7 117 -2 141 -15 26 -14 30 -13 30 9 0 23 23 30 65 19 17
-4 43 -10 59 -13 23 -5 27 -8 15 -16 -11 -7 -10 -9 6 -7 40 3 54 -2 60 -22 4
-13 14 -20 28 -19 58 5 81 -2 113 -37 22 -23 34 -30 34 -20 0 9 7 16 15 16 8
0 15 5 15 10 0 21 50 30 95 19 47 -12 60 -33 49 -86 -9 -47 9 -54 120 -45 69
6 100 4 107 -4 5 -6 35 -14 66 -17 32 -3 59 -11 61 -17 2 -5 13 -10 23 -10 11
0 30 -5 41 -11 17 -9 24 -8 33 4 18 26 84 26 81 1 0 -9 13 -24 29 -34 17 -9
30 -24 30 -33 0 -8 4 -19 8 -23 12 -13 60 -118 62 -136 2 -21 54 -98 67 -98 4
0 13 -11 18 -25 5 -14 14 -25 19 -25 6 0 27 -16 48 -35 21 -19 45 -35 54 -35
9 0 33 -15 53 -34 21 -18 56 -42 79 -52 43 -20 117 -81 117 -98 0 -5 15 -23
33 -41 18 -18 31 -37 29 -44 -2 -6 4 -14 14 -18 50 -19 87 -83 103 -178 11
-72 11 -91 -2 -112 -5 -8 -4 -13 2 -13 6 0 11 -5 11 -10 0 -6 -6 -10 -12 -9
-26 3 -38 -1 -38 -14 0 -8 -11 -24 -25 -37 -14 -13 -25 -29 -25 -36 0 -12 -35
-26 -44 -16 -3 3 -6 19 -6 36 0 50 -12 61 -46 44 -16 -8 -27 -21 -25 -29 2 -8
4 -20 5 -27 1 -7 8 -18 14 -24 25 -25 6 -83 -24 -71 -7 3 -29 0 -48 -7 -30
-10 -36 -17 -41 -48 -11 -61 -13 -65 -40 -58 -21 5 -25 2 -34 -30 -6 -21 -8
-40 -6 -44 2 -4 -19 -6 -48 -5 -71 3 -69 3 -58 23 7 14 4 25 -12 44 -19 22
-26 25 -54 17 -43 -12 -54 -51 -24 -83 11 -12 21 -28 21 -36 0 -7 8 -19 18
-26 35 -27 -27 -39 -95 -19 -19 6 -23 4 -23 -15 0 -16 -5 -21 -22 -18 -16 2
-22 9 -20 21 2 9 -2 17 -9 17 -6 0 -9 8 -7 18 8 29 -17 53 -61 59 -37 5 -41 4
-41 -16 0 -12 -7 -24 -15 -27 -20 -8 -20 -68 0 -88 8 -8 15 -31 15 -50 0 -30
-4 -37 -26 -42 -20 -5 -31 0 -58 31 -19 20 -35 33 -37 27 -2 -5 -19 -7 -36 -5
-23 4 -33 11 -33 23 0 10 -6 20 -12 23 -10 3 -10 9 1 29 24 47 1 102 -59 136
-19 12 -25 11 -38 -2 -14 -13 -18 -13 -44 6 -28 20 -31 20 -74 3 -46 -17 -106
-14 -131 7 -15 12 -76 -9 -67 -23 3 -5 0 -9 -6 -9 -6 0 -18 -7 -26 -15 -16
-15 -71 -20 -111 -9 -30 8 -31 54 -3 109 11 22 20 45 20 51 0 13 77 27 144 26
24 -1 35 2 27 7 -17 11 -17 12 -2 39 6 12 18 22 26 22 18 0 18 -5 5 -31 -8
-15 -7 -19 5 -19 8 0 14 -6 12 -12 -1 -7 4 -13 12 -13 8 0 15 8 17 19 4 26 14
35 52 42 25 5 32 3 32 -10 0 -21 9 -20 26 2 13 16 15 15 35 -11 11 -15 25 -25
29 -22 5 3 11 1 15 -5 12 -19 33 -10 45 21 7 17 23 46 36 64 13 19 22 47 21
67 -1 29 -8 38 -51 66 -28 18 -58 32 -67 32 -8 0 -28 -18 -45 -40 -16 -22 -35
-40 -42 -40 -9 0 -11 -7 -7 -20 5 -16 2 -20 -14 -20 -13 0 -18 5 -15 14 3 8
-7 18 -25 26 -17 7 -31 16 -31 20 0 4 -12 15 -26 25 -32 21 -129 12 -120 -11
3 -8 2 -14 -2 -15 -4 -1 -21 -2 -39 -4 -18 -1 -39 -10 -49 -19 -12 -13 -19
-14 -30 -5 -18 15 -122 23 -137 11 -7 -5 -33 -13 -60 -16 -48 -7 -77 6 -77 34
0 15 -52 5 -163 -31 -100 -33 -120 -35 -136 -15 -13 15 -5 66 10 66 4 0 17 10
29 22 23 25 95 47 156 48 30 0 47 6 64 25 12 13 26 22 30 20 5 -3 24 2 44 10
28 12 36 21 36 41 0 20 -4 25 -16 20 -10 -4 -51 -9 -93 -12 -42 -3 -83 -8 -91
-11 -8 -3 -46 -6 -85 -8 -167 -7 -423 -45 -535 -80 -138 -43 -283 -60 -292
-36 -6 17 -116 21 -129 5 -6 -8 -18 -14 -25 -14 -12 0 -14 -58 -14 -340 l0
-340 748 0 748 0 17 37 c9 21 21 50 26 66 10 26 25 35 35 19 2 -4 -4 -27 -15
-51 -31 -70 -30 -71 64 -71 l84 0 24 47 c13 26 29 48 36 51 17 5 29 -46 14
-61 -28 -28 -12 -37 64 -37 63 0 77 3 82 18 3 9 21 32 40 50 l33 33 0 -31 c0
-16 5 -30 10 -30 6 0 10 -9 10 -20 0 -20 6 -20 748 -19 411 0 740 3 732 6 -31
12 -56 53 -51 85 0 3 -13 21 -29 38 -17 18 -30 37 -30 44 0 7 3 8 8 1 6 -10
14 -11 50 -7 21 3 13 30 -10 34 -15 2 -24 11 -26 25 -2 13 -8 23 -13 23 -5 0
-9 6 -9 13 0 7 -11 23 -25 35 -14 12 -25 28 -25 36 0 8 -5 16 -11 18 -6 2 -13
33 -16 68 -3 42 -1 60 5 52 14 -20 25 14 12 38 -13 25 -6 168 9 183 6 6 11 16
11 22 0 6 8 18 19 27 10 9 26 40 36 69 9 30 26 72 36 95 10 22 19 47 19 54 0
11 3 11 12 2 17 -17 29 -15 22 3 -4 9 1 18 11 21 12 5 14 9 4 14 -8 5 3 13 30
21 39 12 101 62 101 81 0 5 16 24 36 42 42 39 60 83 70 173 3 35 13 70 21 78
17 18 59 14 93 -7 14 -9 43 -18 65 -19 22 -1 51 -8 65 -14 63 -30 130 -25 117
8 -9 23 38 31 90 15 35 -10 42 -16 37 -31 -5 -14 -2 -18 13 -15 11 2 17 11 16
23 -2 11 1 26 6 34 8 12 14 11 38 -5 69 -46 99 -54 121 -32 22 22 12 38 -35
59 -27 11 -56 25 -65 30 -10 5 -25 9 -33 9 -32 0 -12 16 49 39 48 18 67 31 79
55 53 101 74 244 50 346 -9 36 -20 73 -24 82 -13 25 -11 40 4 35 6 -2 22 0 35
4 17 7 24 5 28 -6 4 -8 14 -15 24 -15 10 0 23 -7 31 -16 8 -10 23 -14 42 -11
23 3 30 -1 37 -19 10 -24 47 -50 67 -46 23 5 22 -15 -2 -28 -31 -17 -31 -24
-2 -37 30 -14 31 -47 2 -75 -16 -15 -20 -26 -14 -34 6 -8 0 -13 -21 -17 -44
-9 -37 -27 13 -28 23 -1 34 -3 25 -6 -24 -6 -23 -19 3 -26 27 -7 20 -31 -10
-35 -14 -2 -21 -9 -17 -17 3 -8 -5 -16 -20 -19 -13 -4 -24 -12 -24 -19 0 -8
-11 -23 -24 -34 -13 -12 -27 -35 -31 -53 -4 -17 -13 -34 -21 -37 -33 -12 -51
-102 -19 -91 6 2 11 -12 13 -31 3 -32 4 -33 40 -27 20 3 44 1 52 -4 13 -8 13
-12 -3 -27 -22 -23 -145 -34 -197 -18 l-25 8 22 -24 c17 -17 34 -23 70 -24 43
-1 111 -24 74 -25 -23 0 -3 -14 26 -18 19 -2 24 1 20 11 -3 8 0 20 6 26 16 16
44 14 51 -4 3 -8 1 -15 -5 -15 -6 0 -7 -5 -4 -10 4 -6 16 -8 27 -4 17 5 20 3
14 -11 -3 -10 -2 -23 4 -30 9 -11 -1 -16 -45 -25 -31 -6 -76 -20 -99 -31 -24
-10 -110 -35 -192 -54 -82 -19 -163 -40 -180 -45 -35 -12 -84 -13 -84 -3 0 4
12 19 27 35 l26 27 -40 7 c-35 5 -40 9 -35 27 5 19 2 20 -51 14 -69 -7 -77
-11 -77 -45 0 -35 63 -92 101 -92 15 0 31 -5 34 -10 9 -15 47 -12 91 6 75 31
373 106 434 109 25 1 61 9 80 18 19 8 44 17 54 19 14 2 23 17 32 52 7 27 16
52 21 55 18 13 53 95 45 105 -5 6 -5 65 0 131 11 144 -4 298 -34 364 -13 26
-22 70 -24 110 -4 81 -30 236 -45 263 -6 11 -8 31 -5 44 5 18 0 31 -19 50 -14
14 -25 29 -25 33 0 4 -9 16 -20 26 -26 23 -25 32 2 56 13 10 19 19 13 19 -42
5 -74 20 -42 20 28 0 19 24 -16 40 -27 13 -32 21 -34 53 0 21 -6 44 -13 52 -7
8 -10 26 -6 39 5 21 2 25 -21 28 -20 2 -28 8 -27 21 1 12 -6 17 -23 17 -13 0
-33 4 -43 10 -10 5 -53 15 -94 21 -42 6 -76 15 -76 19 0 8 -51 34 -63 32 -4
-1 -5 9 -1 23 5 21 3 25 -15 25 -12 0 -21 5 -21 11 0 7 10 9 28 4 15 -4 54 -9
87 -10 34 -2 74 -9 89 -15 36 -13 51 -1 42 35 -4 17 -18 31 -40 40 -23 10 -37
25 -45 46 -17 48 -14 57 22 79 39 24 70 25 102 4 35 -23 32 0 -4 34 -16 15
-36 44 -45 65 -8 20 -24 41 -35 45 -18 7 -81 77 -81 91 0 30 63 186 87 217 24
30 32 52 37 101 8 88 53 244 74 257 5 3 9 23 10 45 1 21 7 52 12 67 16 40 74
282 99 404 27 138 54 422 46 484 -9 74 -28 101 -88 130 -75 35 -139 49 -201
44 -70 -6 -186 -73 -326 -190 -134 -112 -284 -227 -430 -330 -63 -44 -145
-110 -182 -145 -36 -34 -73 -63 -81 -63 -8 0 -25 -8 -38 -19 -13 -10 -35 -21
-49 -24 -14 -3 -35 -8 -47 -12 -19 -6 -23 -2 -31 26 -10 35 -10 34 -28 -18 -5
-15 -10 -13 -33 15 -31 36 -43 39 -61 17 -16 -19 -25 -19 -44 1 -9 8 -16 13
-16 9 0 -3 -20 10 -44 29 -31 26 -53 36 -79 36 -48 0 -88 16 -112 46 -15 18
-30 25 -60 25 -22 1 -67 8 -100 17 -33 8 -69 14 -80 14 -10 -1 -24 3 -30 7 -5
5 -35 14 -65 21 -30 7 -73 23 -94 37 -30 19 -47 24 -74 19 -19 -3 -43 -1 -52
4 -10 5 -42 12 -71 15 -281 30 -271 28 -292 57 -17 23 -20 42 -20 133 0 73 -3
105 -11 102 -6 -2 -12 -13 -14 -25 -2 -12 -8 -22 -13 -22 -11 0 -10 -8 -19
125 l-8 110 3 -135 c1 -75 -2 -154 -8 -177 l-11 -43 -77 0 c-43 0 -85 3 -94 6
-19 8 -45 55 -45 83 0 12 -12 28 -27 38 -41 24 -53 43 -53 78 0 17 -7 40 -15
51 -13 18 -14 16 -15 -21 -1 -32 -3 -36 -10 -20 -5 11 -9 36 -9 55 -1 32 -20
82 -21 53 0 -8 -22 -11 -67 -10 -38 1 -99 -7 -137 -17 -55 -14 -110 -18 -271
-18 -110 0 -212 3 -226 6 -50 15 -135 51 -172 74 -34 21 -47 22 -149 20 -110
-3 -112 -3 -119 -28 l-7 -25 -1 28 -1 27 -145 0 -145 0 0 -1000z m1315 861 c3
-5 1 -12 -5 -16 -5 -3 -10 1 -10 9 0 18 6 21 15 7z m3159 -6 c-4 -8 -18 -15
-32 -15 -29 0 -20 15 13 23 11 3 21 5 22 6 1 0 0 -6 -3 -14z m-99 -15 c3 -5
-3 -10 -15 -10 -12 0 -18 5 -15 10 3 6 10 10 15 10 5 0 12 -4 15 -10z m-3025
-55 c0 -8 7 -33 17 -56 l16 -41 18 23 c10 13 19 32 19 42 0 9 5 17 10 17 14 0
13 -11 -6 -56 -15 -36 -15 -88 0 -129 7 -19 7 -20 -8 -1 -13 16 -18 17 -31 6
-13 -11 -14 -7 -9 32 4 29 2 48 -5 52 -6 4 -11 17 -11 30 0 12 -7 31 -15 42
-16 21 -20 69 -5 59 6 -3 10 -13 10 -20z m-790 -3 c0 -5 18 -28 40 -52 22 -24
40 -52 40 -62 0 -24 -17 -23 -30 2 -6 11 -19 19 -28 18 -13 -2 -17 5 -18 30
-1 18 -6 38 -12 45 -15 14 -15 27 -2 27 6 0 10 -4 10 -8z m3935 -21 c-3 -6
-14 -11 -23 -11 -15 1 -15 2 2 15 21 16 32 13 21 -4z m-3788 -63 c-3 -8 -6 -5
-6 6 -1 11 2 17 5 13 3 -3 4 -12 1 -19z m616 0 c3 -11 -1 -37 -10 -57 l-17
-36 -4 34 c-7 63 18 110 31 59z m147 -10 c0 -7 3 -24 6 -38 5 -17 4 -22 -4
-15 -16 15 -26 65 -13 65 6 0 11 -6 11 -12z m2647 -23 c3 -38 -10 -45 -41 -22
-11 8 -15 19 -10 30 5 13 10 15 19 7 9 -8 14 -6 19 5 8 22 11 19 13 -20z
m-2597 -2 c0 -19 -3 -24 -10 -17 -6 6 -8 18 -4 27 9 24 14 21 14 -10z m-795 8
c3 -5 1 -12 -5 -16 -5 -3 -10 1 -10 9 0 18 6 21 15 7z m182 -43 c-2 -13 -4 -5
-4 17 -1 22 1 32 4 23 2 -10 2 -28 0 -40z m3589 35 c-2 -9 -8 -19 -14 -21 -16
-5 -15 25 1 31 6 3 13 6 14 6 1 1 0 -7 -1 -16z m-2669 -85 c-2 -18 -4 -6 -4
27 0 33 2 48 4 33 2 -15 2 -42 0 -60z m-1433 13 c-6 -6 -24 19 -24 34 1 6 7 1
15 -9 8 -11 12 -22 9 -25z m-159 9 c3 -5 1 -10 -4 -10 -6 0 -11 5 -11 10 0 6
2 10 4 10 3 0 8 -4 11 -10z m3728 -7 c-7 -2 -19 -2 -25 0 -7 3 -2 5 12 5 14 0
19 -2 13 -5z m112 -3 c-3 -5 -10 -10 -16 -10 -5 0 -9 5 -9 10 0 6 7 10 16 10
8 0 12 -4 9 -10z m-2573 -35 c3 -13 1 -22 -3 -19 -9 5 -13 44 -5 44 2 0 6 -11
8 -25z m2425 8 c2 -6 -5 -16 -15 -22 -18 -9 -19 -8 -14 11 4 16 2 19 -8 13 -9
-5 -11 -4 -6 4 9 15 38 11 43 -6z m-2050 -45 c-2 -13 -4 -5 -4 17 -1 22 1 32
4 23 2 -10 2 -28 0 -40z m2173 40 c0 -4 -4 -10 -10 -13 -5 -3 -10 -19 -10 -35
0 -16 -4 -31 -9 -34 -16 -10 -52 -88 -47 -102 3 -8 1 -14 -4 -14 -6 0 -10 -7
-10 -15 0 -21 7 -19 36 12 13 14 27 23 30 20 3 -3 15 3 27 14 27 24 54 24 62
0 8 -28 -15 -62 -38 -55 -12 4 -25 -3 -38 -20 -13 -17 -31 -26 -56 -28 -32 -3
-39 -7 -47 -35 -7 -25 -15 -33 -31 -33 -22 0 -40 -22 -28 -34 9 -9 111 -7 117
2 3 5 30 14 61 21 30 7 55 16 55 20 0 5 34 11 76 15 67 6 78 5 89 -11 12 -16
10 -19 -27 -25 -64 -12 -89 -47 -35 -49 21 -1 20 -2 -3 -10 -21 -7 -20 -8 13
-6 25 2 37 -1 37 -10 0 -7 7 -13 15 -13 8 0 15 -6 15 -14 0 -17 -25 -38 -34
-29 -4 4 -10 3 -14 -3 -8 -12 -75 -44 -91 -44 -6 0 -20 -13 -33 -30 -12 -16
-29 -30 -39 -30 -25 0 -42 -26 -48 -73 -5 -36 -10 -42 -33 -45 -14 -2 -32 -10
-38 -18 -7 -8 -19 -14 -26 -14 -8 0 -14 -7 -14 -15 0 -8 -3 -15 -8 -15 -21 0
-30 -38 -18 -73 10 -31 13 -33 23 -19 6 9 14 13 19 9 5 -4 3 -17 -4 -27 -20
-32 4 -23 42 15 20 19 41 35 48 35 7 0 31 17 53 36 108 97 144 124 161 124 4
0 -28 -34 -71 -75 -43 -41 -82 -75 -86 -75 -4 0 -25 -16 -46 -35 -21 -19 -42
-35 -47 -35 -5 0 -3 -7 4 -15 7 -8 8 -15 3 -15 -29 0 -92 -88 -65 -91 4 0 16
-2 28 -3 15 -2 20 2 17 13 -3 12 4 16 28 17 30 1 31 0 14 -12 -31 -23 -8 -28
32 -7 21 11 99 52 174 90 74 39 151 74 170 78 18 4 44 14 57 23 24 16 38 11
29 -10 -2 -8 -22 -15 -42 -16 -32 -2 -119 -39 -175 -73 -8 -5 -32 -16 -53 -25
-21 -9 -42 -25 -48 -35 -8 -16 -6 -19 13 -19 21 -1 22 -2 6 -14 -13 -10 -15
-15 -6 -24 9 -9 9 -12 0 -12 -6 0 -17 9 -24 20 -15 24 -36 26 -44 5 -4 -8 -15
-15 -25 -15 -10 0 -44 -25 -75 -55 -31 -30 -63 -55 -70 -55 -19 0 -25 -16 -18
-45 l6 -25 24 25 c13 14 28 25 33 25 6 0 16 9 23 20 17 27 29 25 19 -3 -5 -13
-6 -30 -1 -37 6 -10 9 -8 12 6 7 38 38 -49 31 -89 -5 -35 -4 -37 21 -37 19 0
25 -4 20 -12 -21 -34 -7 -78 26 -78 13 0 16 -6 12 -25 -4 -22 -1 -25 24 -26
16 -1 32 -1 36 0 3 0 2 -14 -3 -32 -7 -26 -6 -34 8 -44 9 -7 23 -13 31 -13 12
0 12 -3 2 -15 -9 -11 -7 -19 12 -38 17 -17 23 -35 24 -70 0 -26 3 -50 7 -53 3
-3 29 -8 58 -11 92 -9 100 -20 16 -22 -43 -1 -87 4 -98 10 -11 6 -62 12 -112
15 -51 2 -96 5 -102 5 -32 3 -139 -12 -149 -20 -7 -6 -35 -14 -62 -17 -27 -4
-66 -16 -88 -26 -58 -29 -147 -126 -183 -199 -98 -200 -116 -271 -110 -436 l3
-91 -28 22 c-34 26 -143 237 -128 246 8 5 8 47 1 140 -5 74 -8 137 -5 142 3 4
-5 8 -16 8 -21 0 -22 -3 -16 -67 22 -269 21 -289 -24 -315 -26 -15 -30 -15
-30 -2 0 8 -4 13 -9 10 -4 -3 -34 20 -66 50 l-57 56 5 76 c3 42 9 89 13 105 4
17 2 27 -5 27 -6 0 -11 -9 -11 -20 0 -30 -28 -24 -33 7 -8 41 -6 118 2 132 4
6 25 12 47 13 45 1 54 10 54 56 0 25 -4 32 -19 32 -11 0 -23 -5 -26 -10 -15
-23 -27 5 -21 47 8 63 20 76 26 29 3 -22 10 -41 16 -43 19 -6 31 41 30 112 -1
39 1 75 5 80 4 6 9 28 11 50 2 22 8 39 13 38 28 -4 45 19 45 60 0 52 14 80 23
46 4 -13 4 -34 1 -46 -4 -13 -3 -35 0 -49 11 -43 32 -12 47 71 7 41 16 75 20
75 10 0 19 -39 19 -82 0 -43 15 -88 29 -88 6 0 7 7 4 17 -4 11 -3 14 5 9 9 -5
12 8 12 47 0 39 6 61 20 79 17 22 20 43 21 154 1 71 6 132 11 135 6 4 6 19 1
40 -6 21 -5 56 1 89 6 34 11 46 14 33 4 -27 24 -30 43 -7 7 8 21 13 31 11 10
-3 18 -2 18 2 0 3 10 11 23 16 12 6 21 16 20 23 -5 21 15 13 23 -10 4 -13 2
-24 -5 -26 -6 -2 -21 -12 -33 -23 -19 -16 -20 -18 -4 -12 20 7 18 -4 -9 -37
-8 -10 -10 -34 -6 -70 l6 -55 8 41 c7 43 36 80 44 57 3 -7 12 -13 21 -13 15 1
15 2 -1 14 -15 12 -16 18 -7 35 6 12 15 21 20 21 5 0 7 6 4 13 -3 8 2 20 11
27 13 11 15 8 15 -23 0 -19 -5 -37 -11 -39 -7 -2 -5 -9 5 -17 9 -8 16 -9 16
-3 0 6 16 27 35 48 19 20 35 41 35 45 0 5 5 9 10 9 18 0 10 -45 -10 -60 -23
-17 -25 -33 -7 -48 14 -12 48 18 61 53 5 14 9 16 15 7 4 -7 15 -10 25 -6 13 5
16 17 14 60 -3 52 -10 65 -23 44 -3 -5 -20 -9 -38 -9 -18 0 -41 -1 -52 -3 -15
-2 -20 3 -20 25 -1 16 6 32 14 36 14 9 9 41 -7 41 -19 0 -54 -39 -46 -52 5
-10 4 -10 -6 -1 -16 15 -24 170 -9 178 5 4 9 -3 9 -14 0 -27 20 -27 27 -1 5
20 23 25 77 21 16 -2 32 1 35 6 8 12 76 43 94 43 8 0 17 7 21 15 4 11 13 14
31 9 14 -3 25 -2 25 2 -1 41 -66 46 -150 14 -82 -32 -86 -33 -104 -15 -20 20
-21 35 -2 35 7 0 19 7 26 15 9 10 9 15 1 15 -21 0 -11 19 12 22 14 2 22 10 22
23 0 11 -6 19 -12 17 -21 -4 -15 4 45 65 32 32 64 73 72 91 7 19 19 32 30 32
17 0 29 37 31 92 0 10 4 20 10 23 5 4 9 15 9 25 0 33 20 66 41 66 10 0 19 -4
19 -8z m-2503 -20 c-3 -8 -6 -5 -6 6 -1 11 2 17 5 13 3 -3 4 -12 1 -19z
m-1478 -42 c-3 -3 -11 5 -18 17 -13 21 -12 21 5 5 10 -10 16 -20 13 -22z
m1410 -41 c0 -18 -1 -17 -14 5 -8 14 -14 34 -14 45 0 18 1 17 14 -5 8 -14 14
-34 14 -45z m89 5 c0 -10 -1 -11 -5 -2 -8 19 -23 14 -23 -8 0 -11 8 -25 18
-31 13 -8 17 -20 14 -36 -3 -15 3 -35 17 -53 11 -16 21 -41 21 -55 0 -14 8
-42 17 -63 9 -20 20 -48 23 -62 3 -14 11 -24 16 -23 6 1 11 -17 12 -40 2 -70
13 -115 27 -121 8 -3 17 -22 20 -43 3 -21 12 -49 19 -63 8 -14 17 -41 21 -60
4 -19 12 -40 17 -47 5 -7 7 -17 3 -23 -3 -5 -1 -10 5 -10 6 0 9 -4 5 -9 -3 -5
0 -13 6 -16 5 -4 9 -21 8 -39 -2 -36 9 -103 23 -128 7 -14 5 -18 -11 -18 -16
0 -19 -6 -16 -30 2 -16 -1 -30 -6 -30 -6 0 -7 -5 -4 -10 4 -6 11 -25 15 -43 9
-29 8 -30 -5 -13 -8 10 -16 24 -18 30 -8 21 -37 -28 -32 -52 4 -17 2 -23 -7
-19 -7 2 -12 10 -10 17 1 7 -4 9 -17 5 -13 -4 -20 0 -24 15 -3 11 -12 20 -21
20 -20 0 -66 39 -66 56 0 16 -37 37 -49 29 -5 -3 -24 10 -43 28 -18 19 -58 49
-88 69 -30 19 -61 47 -69 61 -8 15 -22 29 -31 32 -26 8 -70 52 -70 70 0 8 -7
15 -15 15 -17 0 -21 16 -5 22 13 4 -11 87 -35 124 -21 32 -10 46 11 15 9 -12
41 -52 72 -89 31 -37 57 -69 59 -71 2 -2 5 -2 8 1 9 9 -14 59 -41 91 -27 32
-27 52 -1 52 8 0 19 4 23 8 4 4 3 7 -2 7 -5 0 -18 14 -27 30 -10 17 -25 30
-33 30 -9 0 -14 5 -12 11 2 6 7 10 11 10 4 -1 16 -1 28 -1 12 0 23 -8 26 -20
3 -11 9 -20 14 -20 5 0 12 -1 17 -2 4 -2 7 9 8 25 1 21 -5 29 -22 33 -19 5
-24 15 -30 52 -4 26 -10 56 -14 68 -12 32 2 49 30 34 12 -6 24 -10 26 -8 2 3
-1 40 -6 84 -6 43 -7 93 -3 109 7 29 7 29 15 -15 4 -25 10 -76 12 -113 3 -50
9 -74 24 -90 11 -12 23 -32 27 -44 3 -13 11 -23 16 -23 15 0 22 29 11 43 -7 8
-8 32 -2 67 4 30 8 47 9 38 0 -10 9 -27 18 -38 21 -24 33 -11 33 37 0 17 5 35
10 38 13 8 1 85 -16 106 -16 18 -18 35 -5 43 5 4 24 -34 42 -84 17 -49 36 -90
40 -90 16 0 9 33 -31 145 -26 71 -30 105 -14 105 8 0 14 10 15 23 1 21 1 21 9
-3 4 -14 8 -32 8 -40z m281 -46 c1 -64 30 -207 43 -215 5 -3 11 -46 13 -94 2
-48 2 -85 0 -83 -15 15 -77 418 -74 480 2 40 16 -31 18 -88z m1971 91 c0 -9 7
-18 15 -21 17 -7 21 -44 5 -44 -5 0 -9 -3 -9 -7 3 -20 -2 -34 -11 -28 -5 3
-10 -1 -10 -9 0 -9 -11 -26 -25 -38 -14 -12 -25 -28 -25 -35 0 -7 -11 -13 -25
-13 -14 0 -25 -4 -25 -10 0 -5 5 -10 12 -10 22 0 -23 -38 -53 -44 -23 -4 -36
0 -57 19 l-27 25 27 0 c36 0 78 40 78 74 0 14 5 26 10 26 6 0 10 7 10 15 0 9
7 18 15 21 8 4 15 13 15 22 0 15 57 71 73 72 4 0 7 -7 7 -15z m-3690 -25 c0
-5 -2 -10 -4 -10 -3 0 -8 5 -11 10 -3 6 -1 10 4 10 6 0 11 -4 11 -10z m1046
-26 c-3 -7 1 -37 8 -66 7 -29 14 -69 15 -88 2 -44 26 -80 51 -80 11 0 20 -5
20 -10 0 -6 -8 -10 -17 -8 -11 2 -19 -6 -24 -22 -4 -14 -7 -19 -8 -12 -1 6 -7
12 -15 12 -25 0 -52 70 -45 120 7 52 3 66 -17 49 -12 -10 -13 -6 -8 22 9 60
27 109 36 103 5 -3 7 -12 4 -20z m3099 -24 c3 -5 1 -10 -4 -10 -6 0 -11 5 -11
10 0 6 2 10 4 10 3 0 8 -4 11 -10z m-3044 -73 c-10 -9 -11 -8 -5 6 3 10 9 15
12 12 3 -3 0 -11 -7 -18z m2392 -25 c-6 -14 -12 -19 -21 -13 -12 7 -12 12 -1
29 16 26 33 14 22 -16z m-88 -53 c-7 -10 -35 -1 -35 11 0 5 9 6 20 3 11 -3 17
-9 15 -14z m-2845 -57 c0 -7 -4 -10 -10 -7 -5 3 -10 16 -10 28 0 18 2 19 10 7
5 -8 10 -21 10 -28z m2804 23 c-4 -8 -8 -15 -10 -15 -2 0 -4 7 -4 15 0 8 4 15
10 15 5 0 7 -7 4 -15z m102 -17 c-4 -18 -13 -39 -20 -46 -12 -12 -15 -11 -20
6 -9 27 10 72 30 72 13 0 15 -6 10 -32z m-61 2 c3 -5 1 -10 -4 -10 -6 0 -11 5
-11 10 0 6 2 10 4 10 3 0 8 -4 11 -10z m-1343 -93 c-3 -10 0 -22 7 -26 9 -6 9
-20 0 -62 -7 -30 -16 -58 -20 -63 -16 -19 -22 27 -9 81 7 33 8 59 3 64 -6 6
-5 28 1 55 l11 46 6 -37 c4 -21 4 -47 1 -58z m1285 77 c-3 -3 -12 -4 -19 -1
-8 3 -5 6 6 6 11 1 17 -2 13 -5z m146 -9 c-3 -9 -8 -14 -10 -11 -3 3 -2 9 2
15 9 16 15 13 8 -4z m-2738 -6 c11 -17 0 -20 -21 -4 -17 13 -17 14 -2 15 9 0
20 -5 23 -11z m1242 -26 c-3 -10 -5 -4 -5 12 0 17 2 24 5 18 2 -7 2 -21 0 -30z
m-1297 -4 c0 -6 -4 -7 -10 -4 -5 3 -10 11 -10 16 0 6 5 7 10 4 6 -3 10 -11 10
-16z m2625 11 c3 -5 0 -10 -7 -10 -10 0 -10 -2 1 -9 20 -13 -3 -23 -31 -12
-17 7 -18 10 -5 10 9 1 17 8 17 16 0 17 16 20 25 5z m-1788 -22 c-3 -8 -6 -5
-6 6 -1 11 2 17 5 13 3 -3 4 -12 1 -19z m923 3 c0 -19 -17 -38 -25 -29 -7 7 7
48 16 48 5 0 9 -9 9 -19z m-1350 -21 c0 -5 -2 -10 -4 -10 -3 0 -8 5 -11 10 -3
6 -1 10 4 10 6 0 11 -4 11 -10z m901 -132 c10 -46 6 -88 -10 -88 -14 0 -21 57
-20 149 1 83 2 84 10 36 5 -27 14 -71 20 -97z m136 75 c-9 -26 -18 -77 -22
-113 -16 -166 -17 -170 -36 -170 -8 0 -3 175 6 190 2 4 9 38 15 76 6 37 16 72
23 76 23 14 29 -11 14 -59z m-1197 47 c0 -5 -2 -10 -4 -10 -3 0 -8 5 -11 10
-3 6 -1 10 4 10 6 0 11 -4 11 -10z m2432 -7 c4 -2 3 -9 -2 -16 -6 -7 -17 -21
-25 -32 -13 -19 -14 -17 -15 22 0 42 6 46 42 26z m-1206 -228 c-20 -48 -33
-165 -18 -165 11 0 52 121 52 153 0 25 11 47 21 41 5 -3 6 -30 3 -60 -8 -62 5
-72 26 -19 7 19 17 32 22 29 4 -3 8 4 8 15 0 11 5 23 10 26 6 4 10 -15 10 -49
0 -30 5 -58 10 -61 6 -4 8 -11 5 -16 -4 -5 -1 -9 4 -9 6 0 10 -5 8 -11 -1 -6
4 -14 11 -16 6 -3 12 2 12 11 0 9 8 16 20 16 12 0 20 -7 20 -17 0 -26 -42
-143 -52 -143 -4 0 -8 -7 -8 -16 0 -15 -37 -76 -50 -82 -3 -1 -4 -18 -2 -37 5
-39 22 -38 22 2 0 17 7 27 21 30 14 4 19 12 16 24 -3 11 -1 19 4 19 5 0 12 1
16 3 4 1 11 -11 14 -28 l6 -30 8 33 c4 17 14 32 21 32 17 0 8 -57 -14 -82 -8
-10 -12 -24 -9 -32 3 -8 0 -17 -8 -20 -19 -7 -49 -72 -41 -91 3 -8 -2 -28 -12
-45 -16 -29 -16 -32 1 -44 25 -19 21 -23 -25 -22 l-42 1 -14 -60 c-8 -33 -21
-81 -28 -107 -8 -26 -14 -57 -14 -69 0 -22 0 -22 20 -4 35 32 43 9 31 -93 -6
-50 -14 -98 -17 -107 -3 -8 -1 -15 4 -15 6 0 14 10 18 23 17 57 59 137 71 137
16 0 17 -14 2 -42 -18 -34 -22 -81 -32 -368 -1 -43 -6 -65 -14 -65 -7 0 -18
-6 -25 -14 -11 -11 -9 -13 10 -8 32 8 30 -30 -3 -45 -14 -6 -25 -15 -25 -20 0
-4 -8 -8 -18 -8 -10 0 -33 -15 -52 -34 -19 -18 -39 -32 -45 -29 -18 6 -4 65
19 84 26 22 14 36 -34 41 -30 3 -35 7 -38 32 -2 17 -18 42 -38 61 -19 18 -35
43 -35 56 -3 54 -7 70 -24 95 -9 14 -17 42 -17 62 0 32 -16 76 -64 177 -7 17
-16 63 -19 103 -4 54 -10 77 -25 92 -11 11 -20 25 -20 31 0 7 -7 17 -15 23 -9
6 -18 29 -22 51 -5 29 -17 50 -45 76 -34 31 -40 42 -45 92 -3 33 -2 57 4 57
18 0 33 -24 33 -53 0 -15 4 -26 10 -22 5 3 14 -14 20 -37 6 -24 18 -48 25 -54
8 -6 20 -24 27 -40 12 -28 13 -28 16 27 3 50 5 56 22 52 15 -4 21 3 31 36 7
23 17 41 22 41 20 0 47 -33 47 -57 0 -31 24 -29 39 3 9 21 14 24 26 14 8 -7
15 -18 15 -25 0 -7 7 -15 15 -19 14 -5 21 17 16 47 -1 4 5 34 13 65 8 31 17
102 20 157 5 83 4 97 -6 82 -38 -55 -39 -55 -32 8 4 38 15 71 29 90 31 41 39
69 40 143 1 34 6 67 13 74 7 7 12 19 12 28 0 9 3 20 8 24 14 15 13 -93 -2
-129z m-376 87 c0 -15 -2 -15 -10 -2 -13 20 -13 33 0 25 6 -3 10 -14 10 -23z
m260 -31 c0 -11 -4 -23 -10 -26 -6 -4 -10 5 -10 19 0 14 5 26 10 26 6 0 10 -9
10 -19z m-20 -45 c0 -3 -4 -8 -10 -11 -5 -3 -10 -1 -10 4 0 6 5 11 10 11 6 0
10 -2 10 -4z m1940 -25 c0 -13 -26 -32 -33 -24 -14 13 -6 33 13 33 11 0 20 -4
20 -9z m-2933 -37 c-5 -5 -57 13 -57 20 0 3 14 0 31 -6 16 -6 28 -12 26 -14z
m-327 -4 c0 -5 9 -10 19 -10 11 0 23 -4 26 -10 3 -5 17 -10 30 -10 34 0 55
-10 55 -26 0 -8 6 -11 16 -7 10 4 20 0 26 -10 5 -10 16 -17 25 -17 9 0 22 -8
29 -17 13 -17 14 -16 20 6 7 23 7 23 23 -9 11 -24 26 -36 48 -42 33 -9 61 -42
44 -53 -5 -3 -38 13 -72 35 -61 39 -89 49 -89 31 0 -5 7 -14 15 -21 9 -7 14
-14 12 -16 -6 -6 -64 25 -77 41 -7 8 -19 15 -27 15 -11 0 -14 7 -10 25 5 29
-23 55 -60 55 -23 0 -88 49 -65 50 6 0 12 -4 12 -10z m1340 -20 c6 -11 8 -20
6 -20 -3 0 -10 9 -16 20 -6 11 -8 20 -6 20 3 0 10 -9 16 -20z m351 -23 c-6 -6
-14 -7 -18 -2 -5 4 -2 10 5 12 6 3 13 12 13 21 1 14 2 14 6 -2 3 -10 0 -23 -6
-29z m-1331 29 c0 -11 -19 -15 -25 -6 -3 5 1 10 9 10 9 0 16 -2 16 -4z m-516
-51 c11 -8 17 -18 14 -21 -8 -8 -78 17 -78 28 0 13 44 8 64 -7z m480 -1 c6 -8
20 -16 31 -18 13 -2 20 -11 20 -24 0 -11 4 -24 8 -28 4 -4 7 -12 7 -18 -1 -6
-9 -1 -20 12 -12 14 -24 21 -32 16 -7 -4 -10 -4 -6 0 4 5 -4 20 -18 34 -13 15
-24 30 -24 34 0 14 22 9 34 -8z m2467 -30 c-12 -16 -21 -21 -21 -13 0 21 33
65 38 51 2 -7 -6 -24 -17 -38z m876 10 c-9 -9 -28 6 -21 18 4 6 10 6 17 -1 6
-6 8 -13 4 -17z m-820 -36 c-3 -7 -5 -2 -5 12 0 14 2 19 5 13 2 -7 2 -19 0
-25z m-2947 18 c0 -11 -19 -15 -25 -6 -3 5 1 10 9 10 9 0 16 -2 16 -4z m405
-16 c3 -5 -1 -10 -9 -10 -9 0 -16 5 -16 10 0 6 4 10 9 10 6 0 13 -4 16 -10z
m-178 -47 c63 -32 75 -35 95 -24 20 10 31 8 73 -14 51 -25 51 -28 3 -25 -14 1
-29 -3 -32 -9 -7 -10 -59 3 -82 20 -6 5 -38 10 -71 13 -56 4 -101 18 -113 37
-3 4 -21 11 -40 17 -35 9 -35 10 -11 19 41 16 101 4 178 -34z m-587 17 c0 -5
-4 -10 -9 -10 -6 0 -13 5 -16 10 -3 6 1 10 9 10 9 0 16 -4 16 -10z m155 -9 c3
-5 21 -7 40 -4 30 5 36 2 46 -21 7 -14 16 -26 21 -26 4 0 8 -4 8 -10 0 -19
-70 -10 -103 13 -37 26 -48 38 -41 49 7 11 22 10 29 -1z m-285 -21 c0 -5 -9
-10 -20 -10 -11 0 -20 5 -20 10 0 6 9 10 20 10 11 0 20 -4 20 -10z m1005 -8
c-3 -3 -11 0 -18 7 -9 10 -8 11 6 5 10 -3 15 -9 12 -12z m-875 -33 c18 -10 3
-11 -39 -3 -17 4 -31 11 -31 15 0 10 45 2 70 -12z m200 -45 c12 -12 8 -14 -32
-14 -48 0 -86 24 -51 33 26 6 65 -3 83 -19z m1597 -36 c-3 -8 -6 -5 -6 6 -1
11 2 17 5 13 3 -3 4 -12 1 -19z m-2032 2 c3 -5 -1 -10 -10 -10 -9 0 -13 5 -10
10 3 6 8 10 10 10 2 0 7 -4 10 -10z m233 -7 c-10 -2 -26 -2 -35 0 -10 3 -2 5
17 5 19 0 27 -2 18 -5z m2276 -39 c9 -44 -20 -152 -36 -136 -6 6 -7 22 -3 39
13 44 15 56 16 96 3 47 15 48 23 1z m-2409 -59 c17 -2 39 -5 50 -6 11 -1 -5
-5 -35 -8 -56 -6 -140 7 -140 22 0 4 21 5 48 2 26 -4 61 -8 77 -10z m2577 -72
c-2 -52 -10 -95 -18 -107 -28 -40 -10 -169 19 -139 11 10 8 81 -4 88 -14 9 -6
30 12 30 25 1 58 -68 38 -81 -12 -7 -12 -64 0 -64 5 0 8 -20 7 -45 -1 -33 2
-45 13 -45 20 0 40 31 41 63 0 15 2 27 4 27 2 0 11 2 19 6 20 7 12 -68 -13
-123 -24 -52 -27 -128 -5 -137 8 -3 15 -13 15 -22 0 -12 -7 -15 -25 -12 -35 7
-52 -10 -59 -58 -6 -40 -5 -42 25 -48 17 -3 42 -6 55 -6 13 0 24 -5 24 -10 0
-6 9 -20 19 -32 19 -20 20 -48 5 -98 -5 -13 -6 -13 -14 0 -6 8 -10 27 -10 43
0 15 -4 27 -10 27 -5 0 -10 9 -10 20 0 15 -7 20 -25 20 -14 0 -25 -5 -25 -11
0 -5 -4 -7 -10 -4 -6 4 -10 -5 -10 -20 0 -15 4 -24 10 -20 6 3 10 2 10 -4 0
-5 -6 -11 -12 -14 -7 -2 2 -12 20 -21 l33 -17 -25 -20 c-32 -26 -32 -33 0 -47
32 -15 30 -61 -3 -78 -13 -6 -20 -14 -16 -17 3 -4 -1 -7 -10 -7 -9 0 -17 -4
-17 -9 0 -17 -34 -22 -46 -7 -6 9 -19 16 -28 16 -9 0 -16 8 -16 20 0 11 -4 20
-10 20 -5 0 -10 5 -10 10 0 6 14 10 32 10 17 0 28 3 25 7 -4 4 5 20 20 35 23
24 25 31 13 38 -17 11 -30 4 -30 -16 0 -20 -26 -18 -34 3 -5 11 1 23 16 35
l23 18 -23 6 c-22 6 -23 11 -19 59 2 29 7 57 10 62 4 6 -1 19 -11 29 -9 11
-23 30 -30 42 -10 19 -10 23 3 28 8 4 15 11 15 17 0 6 12 21 28 33 15 12 24
26 20 30 -5 4 -17 -1 -27 -10 -11 -10 -25 -16 -32 -14 -16 5 -22 47 -9 64 8 9
6 18 -6 33 -10 11 -21 18 -26 15 -14 -9 -9 43 12 118 24 88 25 94 3 73 -19
-20 -73 -130 -73 -151 0 -8 -4 -14 -9 -14 -18 0 -20 32 -5 70 9 22 13 48 9 57
-6 16 -8 16 -16 -4 -4 -13 -13 -23 -18 -23 -5 0 -13 -9 -16 -20 -4 -11 -21
-37 -39 -56 -28 -30 -34 -33 -39 -19 -7 17 7 53 28 70 17 14 27 45 15 45 -12
0 -13 37 -2 44 4 3 7 29 7 58 -2 58 7 78 36 78 11 0 19 5 19 12 0 6 3 8 7 4
10 -9 11 -106 1 -106 -4 0 -8 -7 -8 -15 0 -23 17 -18 24 8 4 12 8 45 9 72 1
28 8 56 15 63 6 7 12 24 12 37 0 27 15 41 26 24 4 -8 12 -1 20 17 l14 29 -5
-37 c-4 -23 -2 -38 5 -38 5 0 10 5 10 10 0 6 7 10 15 10 8 0 18 12 21 28 6 23
21 52 29 52 1 0 0 -39 -3 -87z m-1042 -65 c0 -5 -4 -8 -10 -8 -5 0 -10 10 -10
23 0 18 2 19 10 7 5 -8 10 -18 10 -22z m30 -34 c0 -14 -12 -19 -23 -8 -9 9 4
35 14 28 5 -3 9 -12 9 -20z m1381 -56 c-6 -17 -11 -48 -11 -69 0 -36 -1 -37
-29 -34 -32 4 -49 -18 -31 -40 13 -16 -11 -67 -27 -57 -8 5 -9 30 -3 80 9 82
15 96 29 61 8 -23 9 -22 16 14 6 31 11 37 26 32 14 -5 19 -1 19 14 0 27 13 58
18 43 2 -7 -1 -27 -7 -44z m-1371 22 c0 -5 -2 -10 -4 -10 -3 0 -8 5 -11 10 -3
6 -1 10 4 10 6 0 11 -4 11 -10z m2500 -60 c0 -5 -2 -10 -4 -10 -3 0 -8 5 -11
10 -3 6 -1 10 4 10 6 0 11 -4 11 -10z m-1810 -10 c0 -5 -4 -10 -10 -10 -5 0
-10 5 -10 10 0 6 5 10 10 10 6 0 10 -4 10 -10z m1745 -40 c-3 -5 -12 -10 -18
-10 -7 0 -6 4 3 10 19 12 23 12 15 0z m-1238 -160 c7 -26 27 -25 46 3 l16 22
0 -26 c1 -15 -6 -32 -14 -39 -8 -7 -15 -21 -15 -30 0 -10 -3 -25 -6 -34 -8
-21 -54 -21 -54 -1 0 8 -9 15 -20 15 -16 0 -20 7 -20 35 0 19 6 44 12 55 16
26 48 26 55 0z m-2365 -52 c-15 -15 -24 -6 -16 16 5 12 10 14 17 7 8 -8 8 -14
-1 -23z m2095 -113 c-2 -5 -11 -11 -20 -13 -12 -3 -17 4 -17 22 0 24 2 25 20
14 11 -7 19 -17 17 -23z m1457 16 c7 -10 -84 -22 -99 -13 -11 7 28 20 67 21
15 1 29 -3 32 -8z m-2894 -26 c0 -8 5 -15 10 -15 6 0 10 8 10 17 0 9 2 14 5
11 3 -3 3 -24 -1 -47 -5 -31 -11 -41 -23 -39 -9 2 -15 11 -13 22 2 11 -1 22
-8 26 -12 7 -3 40 11 40 5 0 9 -7 9 -15z m98 -5 c-4 -21 -52 -19 -56 2 -3 14
3 17 28 15 21 -1 30 -7 28 -17z m57 -60 c3 -5 1 -10 -4 -10 -6 0 -11 5 -11 10
0 6 2 10 4 10 3 0 8 -4 11 -10z m-158 -30 c3 -11 12 -20 19 -20 8 0 14 -8 14
-19 0 -27 21 -41 55 -36 17 2 34 4 38 4 5 1 6 9 3 19 -9 26 15 54 34 42 13 -8
12 -10 -3 -10 -14 0 -17 -5 -12 -20 9 -29 -24 -69 -58 -70 -16 0 -30 7 -33 15
-4 8 -12 15 -20 15 -8 0 -14 9 -14 20 0 11 -7 20 -15 20 -14 0 -35 29 -35 49
0 19 22 12 27 -9z m3144 -70 c6 0 7 -5 3 -12 -5 -7 -2 -9 8 -6 8 4 20 -2 26
-13 7 -10 22 -19 33 -19 12 0 28 -8 35 -17 18 -24 17 -36 0 -30 -8 3 -17 0
-20 -8 -3 -8 3 -16 12 -18 12 -3 11 -5 -5 -6 -31 -1 -29 -17 2 -25 14 -4 25
-11 25 -17 0 -7 -7 -8 -17 -4 -40 15 -70 16 -81 3 -9 -11 -2 -16 36 -27 26 -8
52 -18 59 -23 7 -5 17 -7 22 -3 11 6 22 -29 18 -60 -2 -16 5 -21 33 -23 19 -2
40 -8 45 -14 7 -7 -3 -9 -33 -5 -57 7 -51 -10 14 -43 27 -14 51 -26 53 -27 2
-2 1 -6 -3 -10 -4 -4 -16 -2 -27 5 -11 7 -29 10 -40 7 -13 -5 -19 -2 -19 10 0
15 -1 15 -16 1 -8 -9 -20 -16 -25 -16 -6 0 -7 -5 -4 -10 4 -6 10 -8 14 -6 11
7 55 -55 45 -63 -15 -13 -94 0 -94 15 0 13 -11 18 -35 15 -6 0 -15 9 -20 20
-6 12 -14 21 -19 20 -27 -7 -35 67 -10 104 18 28 15 60 -6 60 -8 0 -15 5 -15
12 0 7 -9 18 -19 26 -11 8 -20 23 -21 33 0 11 -4 25 -9 32 -5 8 2 12 23 12 36
0 41 16 9 25 -131 35 -137 41 -40 38 l77 -2 -45 14 c-25 7 -65 20 -90 28 l-45
15 38 7 c20 4 46 5 57 2 11 -3 23 -1 26 5 3 5 13 7 21 4 8 -3 19 -6 24 -6z
m92 -17 c-7 -2 -19 -2 -25 0 -7 3 -2 5 12 5 14 0 19 -2 13 -5z m-1783 -47 c0
-3 -4 -8 -10 -11 -5 -3 -10 -1 -10 4 0 6 5 11 10 11 6 0 10 -2 10 -4z m-2235
-286 c3 -5 2 -10 -4 -10 -5 0 -13 5 -16 10 -3 6 -2 10 4 10 5 0 13 -4 16 -10z
m2770 -20 c3 -5 1 -10 -4 -10 -6 0 -11 5 -11 10 0 6 2 10 4 10 3 0 8 -4 11
-10z m734 -24 c-2 -2 -22 -6 -44 -10 -29 -5 -36 -4 -25 3 13 10 79 16 69 7z
m31 -48 c0 -18 -1 -18 -17 -2 -10 10 -19 12 -21 6 -2 -6 -10 -8 -18 -5 -12 4
-10 8 8 18 29 15 48 8 48 -17z m-3876 16 c9 -3 16 -12 16 -20 0 -16 46 -19 55
-4 10 16 25 12 25 -7 0 -15 -8 -18 -47 -17 -27 1 -59 6 -73 12 -18 7 -29 6
-40 -2 -8 -6 -5 1 5 16 21 28 32 32 59 22z m506 -34 c13 -8 13 -10 -2 -10 -9
0 -20 5 -23 10 -8 13 5 13 25 0z m3380 -37 c0 -5 -5 -15 -10 -23 -8 -12 -10
-11 -10 8 0 12 5 22 10 22 6 0 10 -3 10 -7z m-30 -58 c0 -8 -4 -15 -10 -15 -5
0 -10 7 -10 15 0 8 5 15 10 15 6 0 10 -7 10 -15z m-3795 -15 c3 -5 -1 -10 -9
-10 -9 0 -16 5 -16 10 0 6 4 10 9 10 6 0 13 -4 16 -10z m4192 -5 c8 -22 -6
-33 -17 -15 -13 20 -12 30 0 30 6 0 13 -7 17 -15z m-4380 -31 c-3 -3 -12 -4
-19 -1 -8 3 -5 6 6 6 11 1 17 -2 13 -5z m287 -13 c4 -5 -3 -7 -14 -4 -23 6
-26 13 -6 13 8 0 17 -4 20 -9z m84 -313 c22 -22 13 -33 -25 -31 -21 1 -39 2
-41 2 -1 1 2 10 8 21 12 22 40 26 58 8z m29 -92 c33 -28 29 -36 -15 -33 -72 7
-105 41 -59 63 23 11 28 8 74 -30z m3396 17 c56 -31 81 -53 82 -73 1 -11 -4
-20 -12 -20 -7 0 -13 9 -13 21 0 15 -14 26 -55 44 -30 14 -55 29 -55 35 0 15
18 12 53 -7z m858 -66 c-13 -13 -26 -3 -16 12 3 6 11 8 17 5 6 -4 6 -10 -1
-17z m-14 -63 c-3 -3 -12 -4 -19 -1 -8 3 -5 6 6 6 11 1 17 -2 13 -5z m-17 -53
c0 -5 -9 -7 -20 -4 -11 3 -20 7 -20 9 0 2 9 4 20 4 11 0 20 -4 20 -9z m-30
-71 c0 -5 -7 -10 -16 -10 -8 0 -12 5 -9 10 3 6 10 10 16 10 5 0 9 -4 9 -10z
m98 -58 c3 -11 -17 -10 -60 4 -15 4 -17 8 -8 14 16 10 62 -2 68 -18z m61 -31
c9 -6 10 -10 2 -16 -15 -8 -41 1 -41 15 0 12 20 13 39 1z m-3992 -281 c19 -15
21 -20 9 -20 -9 0 -16 -3 -16 -8 0 -4 -13 -8 -30 -8 -19 -1 -30 3 -30 12 0 8
5 14 10 14 6 0 10 7 10 15 0 21 17 19 47 -5z m-117 -12 c0 -16 -3 -19 -11 -11
-8 8 -19 9 -37 2 -26 -10 -26 -10 -7 10 25 28 55 27 55 -1z m-130 -12 c0 -2
-11 -1 -25 2 -14 2 -22 8 -19 13 4 8 44 -6 44 -15z m448 -478 c-9 -13 -25 -24
-36 -26 -11 -2 -26 -10 -32 -18 -7 -8 -21 -14 -32 -14 -10 0 -42 -12 -70 -26
-28 -14 -74 -33 -102 -41 -28 -8 -64 -22 -81 -31 -16 -9 -32 -17 -35 -17 -3 0
-27 -11 -55 -24 -27 -12 -61 -24 -75 -24 -14 -1 -29 -7 -35 -13 -5 -7 -21 -15
-35 -19 -23 -6 -22 -4 10 24 19 16 44 33 55 37 11 4 22 10 25 13 10 13 157 79
310 141 58 23 112 46 120 50 8 5 30 9 49 9 32 1 33 0 19 -21z m1902 -18 c0 -5
-2 -10 -4 -10 -3 0 -8 5 -11 10 -3 6 -1 10 4 10 6 0 11 -4 11 -10z m-2270 -44
c0 -15 -20 -26 -48 -26 -9 -1 -35 -9 -57 -20 -22 -11 -45 -19 -52 -20 -7 0
-30 -9 -52 -21 -23 -11 -46 -19 -53 -16 -14 5 110 67 133 67 8 0 20 5 26 11
10 10 78 38 96 39 4 0 7 -6 7 -14z m1887 -218 c-3 -8 -6 -5 -6 6 -1 11 2 17 5
13 3 -3 4 -12 1 -19z m850 0 c-3 -8 -6 -5 -6 6 -1 11 2 17 5 13 3 -3 4 -12 1
-19z m-1028 -119 c-20 -13 -29 -11 -29 5 0 16 33 27 39 13 2 -5 -3 -13 -10
-18z m640 12 c23 -15 3 -28 -36 -25 -57 6 -83 13 -83 24 0 12 100 13 119 1z"/>
<path d="M4132 4093 c-6 -2 -10 -9 -7 -13 7 -11 35 -2 35 11 0 10 -8 10 -28 2z"/>
<path d="M3713 3541 c-10 -37 -2 -73 13 -59 3 4 9 27 11 53 7 56 -11 60 -24 6z"/>
<path d="M3851 3480 c2 -35 7 -50 16 -50 8 0 12 4 9 9 -3 5 0 13 7 19 11 10
18 12 34 12 4 0 -3 7 -15 16 -12 8 -22 22 -22 30 0 8 -7 14 -15 14 -13 0 -16
-11 -14 -50z"/>
<path d="M3611 3476 c-8 -9 -11 -19 -7 -23 9 -9 29 13 24 27 -2 8 -8 7 -17 -4z"/>
<path d="M3675 3480 c3 -5 8 -10 11 -10 2 0 4 5 4 10 0 6 -5 10 -11 10 -5 0
-7 -4 -4 -10z"/>
<path d="M3452 3460 c0 -14 2 -19 5 -12 2 6 2 18 0 25 -3 6 -5 1 -5 -13z"/>
<path d="M3667 3453 c-9 -2 -15 -8 -12 -13 3 -5 1 -11 -5 -15 -14 -8 -13 -58
1 -72 9 -9 18 1 35 35 35 69 32 78 -19 65z"/>
<path d="M3440 3395 c0 -14 5 -25 10 -25 6 0 10 11 10 25 0 14 -4 25 -10 25
-5 0 -10 -11 -10 -25z"/>
<path d="M3750 3404 c0 -8 5 -12 10 -9 6 4 8 11 5 16 -9 14 -15 11 -15 -7z"/>
<path d="M3693 3353 c-27 -26 -30 -37 -42 -141 -8 -62 -18 -115 -22 -118 -5
-3 -9 -15 -9 -28 0 -13 -7 -37 -16 -54 -20 -40 -11 -55 28 -47 28 6 29 5 19
-13 -15 -28 -14 -32 7 -32 11 0 27 9 37 20 10 11 24 20 32 20 7 0 13 5 13 10
0 6 11 23 25 38 14 15 25 32 25 39 0 7 6 13 14 13 8 0 17 8 20 18 3 9 19 26
36 37 16 11 30 26 30 34 0 8 -3 11 -7 8 -3 -4 -12 -2 -19 4 -8 6 -21 9 -29 5
-18 -7 -20 15 -2 33 10 11 9 12 -2 6 -11 -6 -13 -3 -9 13 4 12 0 26 -8 33 -8
7 -11 21 -8 35 5 18 2 24 -10 24 -9 0 -16 7 -16 15 0 8 7 15 16 15 8 0 12 5 9
10 -4 6 -15 8 -25 5 -10 -3 -25 1 -33 10 -20 20 -20 20 -54 -12z"/>
<path d="M3421 3148 c-1 -39 13 -59 22 -30 2 9 8 26 12 37 l7 20 -13 -20 c-13
-19 -13 -19 -20 5 -6 22 -7 20 -8 -12z"/>
<path d="M1535 4230 c10 -35 25 -49 25 -23 0 11 -7 27 -16 34 -15 12 -16 11
-9 -11z"/>
<path d="M1566 4135 c6 -55 20 -78 30 -52 3 10 -3 36 -15 60 l-22 42 7 -50z"/>
<path d="M1625 4116 c2 -22 9 -44 15 -50 15 -15 12 23 -6 59 l-14 30 5 -39z"/>
<path d="M1505 4040 c3 -5 8 -10 11 -10 2 0 4 5 4 10 0 6 -5 10 -11 10 -5 0
-7 -4 -4 -10z"/>
<path d="M1343 3874 c-7 -20 11 -38 32 -30 13 4 14 10 5 26 -13 24 -28 26 -37
4z"/>
<path d="M1427 3804 c-3 -5 3 -19 13 -32 32 -39 42 -24 11 17 -10 13 -21 20
-24 15z"/>
<path d="M1492 3799 c2 -7 10 -15 17 -17 8 -3 12 1 9 9 -2 7 -10 15 -17 17 -8
3 -12 -1 -9 -9z"/>
<path d="M1401 3730 c17 -36 58 -90 70 -90 17 0 9 15 -37 65 -28 31 -41 40
-33 25z"/>
<path d="M1462 3729 c2 -6 8 -10 13 -10 5 0 11 4 13 10 2 6 -4 11 -13 11 -9 0
-15 -5 -13 -11z"/>
<path d="M1730 3653 c0 -10 7 -26 14 -36 8 -10 12 -28 9 -40 -4 -18 -3 -19 6
-7 10 13 11 13 11 0 0 -8 7 -23 15 -34 13 -18 14 -17 21 8 5 21 2 31 -12 41
-11 7 -26 29 -34 49 -15 38 -30 48 -30 19z"/>
<path d="M2271 3424 c0 -11 3 -14 6 -6 3 7 2 16 -1 19 -3 4 -6 -2 -5 -13z"/>
<path d="M2292 3350 c0 -14 2 -19 5 -12 2 6 2 18 0 25 -3 6 -5 1 -5 -13z"/>
<path d="M2270 3269 c0 -5 5 -7 10 -4 6 3 10 8 10 11 0 2 -4 4 -10 4 -5 0 -10
-5 -10 -11z"/>
<path d="M2308 3200 c-7 -24 -3 -38 8 -28 3 4 4 17 2 30 l-3 23 -7 -25z"/>
<path d="M2722 3273 c-7 -12 -12 -37 -11 -55 l0 -33 15 40 c17 48 15 82 -4 48z"/>
<path d="M2796 3085 c-14 -39 0 -132 18 -114 11 11 11 122 0 126 -6 2 -14 -3
-18 -12z"/>
<path d="M2835 2680 c-4 -7 -1 -16 6 -21 17 -10 26 8 11 23 -6 6 -12 6 -17 -2z"/>
<path d="M2831 2624 c0 -11 3 -14 6 -6 3 7 2 16 -1 19 -3 4 -6 -2 -5 -13z"/>
<path d="M2877 2553 c-13 -13 -7 -21 13 -16 11 3 17 9 14 14 -6 11 -18 12 -27
2z"/>
<path d="M3015 2919 c-4 -6 -5 -13 -2 -16 7 -7 27 6 27 18 0 12 -17 12 -25 -2z"/>
<path d="M4540 2550 c0 -5 5 -10 11 -10 5 0 7 5 4 10 -3 6 -8 10 -11 10 -2 0
-4 -4 -4 -10z"/>
<path d="M4470 2400 c0 -6 7 -10 15 -10 8 0 15 2 15 4 0 2 -7 6 -15 10 -8 3
-15 1 -15 -4z"/>
<path d="M4502 2278 c6 -18 28 -21 28 -4 0 9 -7 16 -16 16 -9 0 -14 -5 -12
-12z"/>
<path d="M4420 2740 l25 -21 -24 6 c-16 5 -22 3 -19 -5 4 -12 88 -43 148 -54
l35 -7 -29 25 c-16 13 -34 22 -41 20 -6 -3 -22 0 -36 5 -17 7 -19 10 -6 10 17
1 23 16 9 25 -4 2 -25 7 -47 11 l-40 6 25 -21z"/>
<path d="M494 1786 c-10 -22 -9 -25 18 -30 16 -3 41 -19 55 -35 14 -16 32 -27
39 -24 19 7 18 23 -1 23 -8 0 -22 11 -31 25 -9 14 -27 28 -40 31 -12 3 -24 12
-26 20 -2 9 -7 5 -14 -10z"/>
<path d="M1638 1743 c6 -2 18 -2 25 0 6 3 1 5 -13 5 -14 0 -19 -2 -12 -5z"/>
<path d="M1722 1558 c-9 -9 0 -23 38 -60 48 -46 50 -51 44 -89 -5 -32 -3 -42
12 -54 22 -15 15 -29 -10 -19 -9 3 -16 16 -16 28 0 12 -16 40 -36 62 -20 21
-43 49 -51 60 -11 18 -22 21 -61 19 -26 -2 -50 -3 -55 -4 -12 -2 -77 -74 -83
-93 -9 -29 14 -58 45 -58 19 0 46 -14 77 -40 27 -22 56 -40 65 -40 29 0 86 29
93 47 5 12 9 14 14 6 4 -6 14 -13 22 -15 8 -2 29 -13 47 -25 17 -13 39 -23 47
-23 9 0 16 -4 16 -10 0 -12 37 -14 44 -2 7 12 108 5 116 -8 5 -8 19 -8 53 0
35 9 47 17 52 37 10 43 -5 91 -40 120 -97 83 -126 99 -189 107 -54 6 -111 25
-78 26 7 0 10 5 7 10 -3 6 -17 7 -30 4 -12 -3 -26 -1 -29 4 -3 6 -15 8 -25 5
-10 -3 -22 0 -25 6 -9 15 -49 14 -64 -1z"/>
<path d="M716 1351 c-3 -5 6 -12 21 -16 16 -3 30 -10 33 -14 3 -5 14 -5 25 -1
18 6 17 9 -12 23 -36 19 -59 22 -67 8z"/>
<path d="M1350 1289 c0 -5 5 -9 10 -9 6 0 10 -8 10 -18 0 -22 19 -42 40 -42
13 0 13 1 0 10 -12 8 -12 10 -1 10 11 0 11 3 1 15 -6 8 -9 19 -5 25 3 5 3 11
-2 11 -35 6 -53 5 -53 -2z"/>
<path d="M1180 1226 l-55 -11 3 -39 c4 -43 20 -93 21 -65 1 22 44 39 101 39
26 0 55 3 64 6 19 7 21 40 4 47 -82 34 -83 34 -138 23z"/>
<path d="M4645 1130 c3 -5 12 -10 20 -10 7 0 15 -5 17 -12 5 -14 28 -2 28 15
0 7 -16 13 -36 15 -21 1 -33 -2 -29 -8z"/>
<path d="M1090 1090 c0 -5 9 -10 20 -10 11 0 20 5 20 10 0 6 -9 10 -20 10 -11
0 -20 -4 -20 -10z"/>
<path d="M1865 1069 c-16 -10 -29 -24 -27 -29 1 -6 -5 -10 -13 -10 -19 0 -31
-30 -37 -97 -5 -51 -4 -52 23 -58 16 -4 31 -11 34 -16 4 -5 16 -9 28 -9 12 -1
33 -7 46 -14 25 -14 55 -11 46 4 -8 12 21 31 61 40 47 11 104 -11 104 -41 0
-15 4 -19 16 -15 9 3 24 6 34 6 33 0 50 28 50 80 0 64 -25 115 -63 131 -25 11
-31 10 -38 -4 -5 -9 -23 -25 -39 -37 l-29 -20 -28 26 c-15 14 -39 36 -53 50
-35 33 -78 38 -115 13z"/>
<path d="M1610 1060 c0 -5 5 -10 10 -10 6 0 10 5 10 10 0 6 -4 10 -10 10 -5 0
-10 -4 -10 -10z"/>
<path d="M1037 1045 c-5 -10 0 -15 14 -15 12 0 19 5 17 12 -6 18 -25 20 -31 3z"/>
<path d="M1100 1049 c0 -5 5 -7 10 -4 6 3 10 8 10 11 0 2 -4 4 -10 4 -5 0 -10
-5 -10 -11z"/>
<path d="M4777 1052 c-13 -3 -16 -9 -12 -25 4 -12 3 -17 -2 -12 -5 7 -19 7
-43 -1 -29 -9 -31 -13 -15 -17 19 -5 19 -5 -2 -12 -28 -9 -28 -13 -1 -37 26
-22 51 -107 37 -124 -8 -10 -3 -24 11 -24 3 0 12 46 19 103 7 56 18 110 23
120 12 24 7 34 -15 29z"/>
<path d="M1135 1031 c-3 -5 -1 -12 5 -16 5 -3 10 1 10 9 0 18 -6 21 -15 7z"/>
<path d="M1615 1012 c0 -9 5 -23 9 -30 14 -23 -3 -26 -39 -9 -20 9 -47 17 -61
17 -32 0 -66 -18 -59 -31 4 -5 1 -9 -4 -9 -25 0 -8 -31 25 -45 19 -8 33 -19
30 -24 -8 -12 4 -42 14 -36 5 3 15 -1 23 -9 19 -19 33 -21 95 -12 45 7 52 11
52 31 0 16 7 25 27 30 20 5 23 9 14 15 -10 5 -12 18 -8 39 6 29 3 34 -40 61
-53 34 -80 38 -78 12z"/>
<path d="M1113 950 c-13 -15 -30 -20 -63 -20 -50 0 -88 -19 -75 -39 5 -9 27
-11 83 -5 42 4 103 7 135 7 54 0 62 -3 90 -33 l31 -33 28 34 c15 18 28 39 28
45 0 18 -30 27 -77 25 -32 -2 -43 1 -43 12 0 34 -110 39 -137 7z"/>
<path d="M4722 763 c-21 -8 -2 -23 29 -23 16 0 29 5 29 13 0 12 -34 18 -58 10z"/>
<path d="M4710 691 c-14 -28 -12 -61 4 -61 8 0 17 11 20 24 3 13 9 31 12 40 9
23 -23 20 -36 -3z"/>
<path d="M2192 630 c-12 -11 -19 -26 -16 -34 3 -8 1 -17 -5 -21 -6 -3 -11 -19
-11 -36 0 -22 5 -29 20 -29 11 0 20 -4 20 -10 0 -29 83 11 100 49 8 18 7 27
-5 41 -8 9 -15 24 -15 33 0 10 -6 14 -14 11 -8 -3 -17 -1 -21 5 -10 17 -29 13
-53 -9z"/>
<path d="M4680 588 c0 -6 -7 -19 -16 -29 -9 -10 -13 -23 -9 -28 10 -17 25 -13
25 7 0 10 7 28 16 40 14 20 14 22 0 22 -9 0 -16 -5 -16 -12z"/>
<path d="M2470 562 c-36 -13 -53 -68 -24 -79 28 -11 61 13 62 45 1 31 -12 43
-38 34z"/>
<path d="M2641 525 c-47 -50 12 -78 66 -31 24 20 25 26 14 40 -19 23 -52 19
-80 -9z"/>
<path d="M4639 470 l-24 -19 38 -1 c30 0 37 3 37 20 0 25 -21 26 -51 0z"/>
<path d="M4567 433 c-4 -3 -7 -14 -7 -24 0 -9 -5 -19 -12 -21 -6 -2 -8 -10 -4
-16 12 -20 25 -14 32 16 4 15 11 33 17 40 7 8 5 12 -5 12 -8 0 -18 -3 -21 -7z"/>
<path d="M2646 325 c-9 -24 -7 -55 3 -55 15 0 23 38 13 56 -8 15 -10 15 -16
-1z"/>
<path d="M4503 298 c-15 -19 -26 -58 -16 -58 9 0 35 61 29 67 -2 2 -8 -2 -13
-9z"/>
<path d="M2440 260 c0 -5 5 -10 10 -10 6 0 10 5 10 10 0 6 -4 10 -10 10 -5 0
-10 -4 -10 -10z"/>
<path d="M4455 199 c-9 -14 -2 -20 14 -10 8 6 9 11 3 15 -6 3 -14 1 -17 -5z"/>
<path d="M4434 128 c-12 -26 -25 -38 -48 -43 -17 -4 -25 -9 -18 -12 6 -2 12
-10 12 -17 0 -19 47 -59 60 -51 6 4 9 14 6 22 -4 8 1 35 9 60 10 29 12 50 6
61 -8 14 -12 10 -27 -20z"/>
</g>
</svg>
